<svg width="200" height="58" viewBox="0 0 200 58" fill="none" xmlns="http://www.w3.org/2000/svg">
<mask id="mask0_2363_72" style="mask-type:luminance" maskUnits="userSpaceOnUse" x="61" y="3" width="45" height="42">
<path d="M63.189 22.173C63.165 21.8968 63.1987 21.6187 63.2879 21.3563C63.3771 21.0939 63.5199 20.8528 63.7072 20.6485C63.8945 20.4442 64.1223 20.281 64.376 20.1694C64.6297 20.0578 64.9038 20.0001 65.181 20H69C69.5304 20 70.0392 20.2107 70.4142 20.5858C70.7893 20.9609 71 21.4696 71 22V41C71 41.5304 70.7893 42.0391 70.4142 42.4142C70.0392 42.7893 69.5304 43 69 43H66.834C66.3334 43.0001 65.851 42.8125 65.482 42.4743C65.113 42.136 64.8843 41.6717 64.841 41.173L63.189 22.173ZM77 21.375C77 20.539 77.52 19.791 78.275 19.435C79.924 18.657 82.733 17.094 84 14.981C85.633 12.257 85.941 7.33599 85.991 6.20899C85.998 6.05099 85.994 5.89299 86.015 5.73699C86.286 3.78399 90.055 6.06499 91.5 8.47699C92.285 9.78499 92.385 11.504 92.303 12.847C92.214 14.283 91.793 15.67 91.38 17.048L90.5 19.985H101.357C101.666 19.985 101.971 20.0566 102.248 20.1941C102.524 20.3317 102.765 20.5315 102.952 20.7779C103.138 21.0243 103.265 21.3105 103.322 21.6142C103.38 21.9178 103.366 22.2306 103.282 22.528L97.912 41.544C97.7935 41.9634 97.5412 42.3326 97.1935 42.5954C96.8458 42.8582 96.4218 43.0003 95.986 43H79C78.4696 43 77.9609 42.7893 77.5858 42.4142C77.2107 42.0391 77 41.5304 77 41V21.375Z" fill="#555555" stroke="white" stroke-width="4" stroke-linecap="round" stroke-linejoin="round"/>
</mask>
<g mask="url(#mask0_2363_72)">
<path d="M59 0H107V48H59V0Z" fill="#366CF0"/>
</g>
<path d="M14.7668 39H10.9148C10.0148 39 8.93477 39.684 8.93477 26.184C8.93477 8.4 10.8068 9.048 11.4188 9.048H14.7308C16.1348 9.048 16.6388 9.048 18.4028 11.46C21.7868 16.104 22.0028 18.732 22.7228 18.732C23.2628 18.732 23.4788 16.104 27.2948 11.46C29.3108 9.012 29.8508 9.048 31.2548 9.048H34.0628C34.6748 9.048 36.5468 8.4 36.5468 26.184C36.5468 39.684 35.4668 39 34.5668 39H29.9588C29.5268 39 28.6628 39.108 28.6628 38.46C28.6628 37.956 30.7148 31.476 30.7148 22.08C30.7148 21.324 30.8228 16.896 29.6348 16.896C28.5908 16.896 27.2228 20.46 26.8628 21.324C23.8388 28.704 25.0628 32.088 22.6508 32.088C19.6268 32.088 20.8148 28.704 17.6108 21.324C17.2508 20.532 16.0628 16.896 14.9468 16.896C13.7588 16.896 13.7948 21.324 13.7948 22.08C13.7948 31.476 16.0628 37.956 16.0628 38.46C16.0628 39.108 15.1988 39 14.7668 39ZM39.2895 38.172V35.004C39.2895 34.572 39.3615 33.528 40.3335 33.528C44.4735 33.528 45.5535 32.196 45.5535 31.728C45.5535 30.216 39.2895 27.66 39.2895 17.652C39.2895 16.032 39.2535 15.96 40.6575 15.96H43.6095C44.0775 15.96 44.8695 15.852 44.8695 16.608C44.8695 17.112 44.5455 18.228 44.5455 19.308C44.5455 23.52 48.0735 27.48 48.7935 27.48C50.2335 27.48 51.2055 23.16 51.2055 20.388C51.2055 18.588 50.8095 17.076 50.8095 16.5C50.8095 15.852 51.7095 15.96 52.1055 15.96H55.3095C55.9935 16.068 55.8855 17.22 55.8855 18.768C56.2095 29.316 48.0735 39.54 40.1535 39.54C39.3255 39.54 39.2895 39 39.2895 38.172ZM117.766 23.628C119.638 23.628 125.65 19.2 125.65 16.608C125.65 14.124 123.49 13.296 121.33 13.296C118.738 13.296 116.614 13.692 116.65 21.972C116.65 22.836 116.722 23.628 117.766 23.628ZM113.302 9.048H124.354C130.258 9.048 131.482 13.332 131.482 15.456C131.482 25.104 117.406 26.508 117.406 31.044C117.406 34.068 118.666 38.46 118.666 38.676C118.666 39.108 117.838 39 117.586 39H112.798C111.898 39 110.818 39.684 110.818 26.184C110.818 8.4 112.69 9.048 113.302 9.048ZM138.034 39H135.154C133.822 39 133.174 40.116 133.174 28.2C133.174 18.228 132.886 15.996 133.894 15.96H136.882C137.422 15.96 138.07 15.78 138.106 16.464C138.178 17.004 138.25 17.688 138.97 17.688C139.51 17.688 140.122 17.112 140.878 16.536C141.634 15.996 142.498 15.42 143.47 15.42C145.306 15.42 146.818 17.004 146.818 18.948C146.818 21.468 144.766 22.98 143.686 22.98C143.254 22.98 143.758 20.568 141.274 20.568C138.25 20.568 138.034 25.428 138.034 27.588C138.034 34.752 139.258 37.776 139.258 38.424C139.222 39 138.43 39 138.034 39ZM152.823 39H150.375C148.611 39 148.467 39.756 148.467 27.084C148.467 14.772 149.043 15.96 150.231 15.96H152.211C153.723 15.96 153.759 16.068 153.759 16.5C153.759 17.832 153.327 19.164 153.327 23.088C153.327 32.16 154.731 37.74 154.731 38.064C154.731 39.216 153.651 39 152.823 39ZM151.635 13.152C150.195 13.152 148.863 12.324 148.863 10.776C148.863 9.228 150.195 8.292 151.635 8.292C153.075 8.292 154.407 9.228 154.407 10.776C154.407 12.324 153.075 13.152 151.635 13.152ZM165.625 39.54C159.649 39.54 157.129 33.888 157.129 28.632C157.129 22.44 160.261 15.42 167.353 15.42C170.485 15.42 172.753 17.112 172.753 19.164C172.753 20.244 171.961 22.332 170.629 22.332C169.801 22.332 169.945 19.668 167.029 19.668C163.321 19.668 161.989 24.564 161.989 27.588C161.989 31.08 163.645 33.996 167.065 33.996C170.953 33.996 171.853 30.432 172.177 30.432C172.357 30.432 172.717 31.08 172.717 32.556C172.717 36.876 169.873 39.54 165.625 39.54ZM183.815 39.54C177.371 39.54 174.707 34.212 174.707 28.452C174.707 19.74 179.531 15.42 184.355 15.42C188.315 15.42 191.663 17.652 191.663 21.9C191.663 29.64 180.071 28.02 180.071 31.764C180.071 33.456 182.807 34.68 184.607 34.68C190.511 34.68 190.511 30.18 191.015 30.18C191.555 30.18 191.663 32.052 191.663 32.34C191.663 36.912 188.135 39.54 183.815 39.54ZM184.175 19.668C181.259 19.668 179.567 22.8 179.567 24.888C179.567 25.284 179.747 25.68 180.215 25.68C180.647 25.68 187.199 24.24 187.199 22.404C187.199 20.64 185.543 19.668 184.175 19.668Z" fill="#366CF0"/>
</svg>
