<svg width="32" height="42" viewBox="0 0 32 42" fill="none" xmlns="http://www.w3.org/2000/svg">
<path d="M16 1C1.79983 1 -0.567567 12.8328 1.79983 21.8022C3.88323 29.661 10.1292 35.0317 14.2494 39.4358C14.4712 39.6795 14.7415 39.8743 15.043 40.0075C15.3445 40.1407 15.6704 40.2095 16 40.2095C16.3296 40.2095 16.6555 40.1407 16.957 40.0075C17.2585 39.8743 17.5288 39.6795 17.7506 39.4358C21.8687 35.0317 28.1168 29.661 30.2002 21.8022C32.5676 12.8328 30.2002 1 16 1Z" fill="#366CF0" stroke="#EDEFF4" stroke-width="2" stroke-miterlimit="10" stroke-linecap="round"/>
<path d="M16 22.3005C17.883 22.3005 19.689 21.5525 21.0205 20.2209C22.352 18.8894 23.1001 17.0835 23.1001 15.2004C23.1001 13.3174 22.352 11.5114 21.0205 10.1799C19.689 8.84838 17.883 8.10034 16 8.10034C14.1169 8.10034 12.311 8.84838 10.9795 10.1799C9.64795 11.5114 8.8999 13.3174 8.8999 15.2004C8.8999 17.0835 9.64795 18.8894 10.9795 20.2209C12.311 21.5525 14.1169 22.3005 16 22.3005Z" fill="#EDEFF4" stroke="#EDEFF4" stroke-width="2" stroke-miterlimit="10" stroke-linecap="round"/>
</svg>
