<svg width="30" height="40" viewBox="0 0 30 40" fill="none" xmlns="http://www.w3.org/2000/svg">
<path d="M15 0C0.799834 0 -1.56757 11.8328 0.799834 20.8022C2.88323 28.661 9.12918 34.0317 13.2494 38.4358C13.4712 38.6795 13.7415 38.8743 14.043 39.0075C14.3445 39.1407 14.6704 39.2095 15 39.2095C15.3296 39.2095 15.6555 39.1407 15.957 39.0075C16.2585 38.8743 16.5288 38.6795 16.7506 38.4358C20.8687 34.0317 27.1168 28.661 29.2002 20.8022C31.5676 11.8328 29.2002 0 15 0Z" fill="#366CF0"/>
<path d="M15 21.3005C16.883 21.3005 18.689 20.5525 20.0205 19.2209C21.352 17.8894 22.1001 16.0835 22.1001 14.2004C22.1001 12.3174 21.352 10.5114 20.0205 9.17991C18.689 7.84838 16.883 7.10034 15 7.10034C13.1169 7.10034 11.311 7.84838 9.97947 9.17991C8.64795 10.5114 7.8999 12.3174 7.8999 14.2004C7.8999 16.0835 8.64795 17.8894 9.97947 19.2209C11.311 20.5525 13.1169 21.3005 15 21.3005Z" fill="#EDEFF4"/>
</svg>
