<svg width="32" height="42" viewBox="0 0 32 42" fill="none" xmlns="http://www.w3.org/2000/svg">
<path d="M16 1C1.79983 1 -0.567567 12.8328 1.79983 21.8022C3.88323 29.661 10.1292 35.0317 14.2494 39.4358C14.4712 39.6795 14.7415 39.8743 15.043 40.0075C15.3445 40.1407 15.6704 40.2095 16 40.2095C16.3296 40.2095 16.6555 40.1407 16.957 40.0075C17.2585 39.8743 17.5288 39.6795 17.7506 39.4358C21.8687 35.0317 28.1168 29.661 30.2002 21.8022C32.5676 12.8328 30.2002 1 16 1Z" fill="#EDEFF4" stroke="#366CF0" stroke-width="2" stroke-miterlimit="10" stroke-linecap="round"/>
<path d="M15.9999 22.3005C17.8829 22.3005 19.6889 21.5525 21.0204 20.2209C22.3519 18.8894 23.0999 17.0835 23.0999 15.2004C23.0999 13.3174 22.3519 11.5114 21.0204 10.1799C19.6889 8.84838 17.8829 8.10034 15.9999 8.10034C14.1168 8.10034 12.3109 8.84838 10.9793 10.1799C9.64782 11.5114 8.89978 13.3174 8.89978 15.2004C8.89978 17.0835 9.64782 18.8894 10.9793 20.2209C12.3109 21.5525 14.1168 22.3005 15.9999 22.3005Z" fill="white" stroke="#366CF0" stroke-width="2" stroke-miterlimit="10" stroke-linecap="round"/>
</svg>
